<?xml version="1.0" encoding="UTF-8"?>
<svg width="113px" height="34px" viewBox="0 0 113 34" version="1.1" xmlns="http://www.w3.org/2000/svg" xmlns:xlink="http://www.w3.org/1999/xlink">
    <!-- Generator: sketchtool 56.2 (101010) - https://sketch.com -->
    <title>6F009E18-5F00-4C33-B904-834C8BF720CD@2x</title>
    <desc>Created with sketchtool.</desc>
    <defs>
        <polygon id="path-1" points="0.082449045 0.0462535212 15.5880704 0.0462535212 15.5880704 18.3222119 0.082449045 18.3222119"></polygon>
        <polygon id="path-3" points="0 0.0187393687 26.2464593 0.0187393687 26.2464593 33.1569591 0 33.1569591"></polygon>
    </defs>
    <g id="XL" stroke="none" stroke-width="1" fill="none" fill-rule="evenodd">
        <g id="Home-Safra-XL" transform="translate(-370.000000, -7655.000000)">
            <g id="Footer" transform="translate(-1.000000, 6921.000000)">
                <g id="Group-15" transform="translate(371.000000, 734.000000)">
                    <path d="M52.5885039,12.1899942 C52.6490856,10.3079212 51.1236627,8.59102058 47.9089809,8.52785614 C45.6360134,8.49478667 43.9480399,9.29396561 43.7970571,11.203509 C43.6724663,12.7965303 44.2026198,13.1130524 45.2275374,13.5248461 C45.7606899,14.1016372 50.0651553,14.8023076 50.9318923,14.9575067 C52.181656,15.1831315 54.8688406,15.7544985 56.2988924,17.2499736 C58.919583,20.0529177 57.7049515,25.562222 54.8688406,27.4413205 C52.9291149,28.7142327 50.2822037,29.0332044 47.7558559,29.0641743 C46.6022345,29.0981186 43.8557536,28.6819506 42.1719787,27.4413205 C40.1463933,25.942346 39.1469252,23.6497916 38.9959424,21.4556582 L43.5434198,21.4556582 C43.5434198,22.058695 43.7331336,23.0144727 44.5097266,23.8444465 C45.536615,24.9290028 47.2276733,25.2768447 48.7848866,25.2125429 C50.3452703,25.1809607 51.808055,24.7056526 52.401018,24.1266744 C53.3984296,23.1755333 53.6176203,21.3572372 52.4941611,20.2145032 C50.9947875,18.6215694 46.5078917,18.6215694 43.5782092,17.6021897 C41.1104722,16.7408087 39.088143,14.9233874 39.4612298,11.1723642 C39.8352592,7.4761069 42.4514939,4.73860187 48.0063228,4.73860187 C49.2187264,4.73860187 53.4604679,4.83483579 55.676367,7.70208164 C56.8616931,9.25967135 57.1728273,11.425022 56.9875692,12.1899942 L52.5885039,12.1899942 Z" id="Fill-1" fill="#FFFFFF"></path>
                    <path d="M69.3391416,20.2145207 C68.0912631,20.9772182 66.411944,20.9162409 65.2853144,21.1353918 C63.9471204,21.3925988 63.0053205,22.537345 63.3844055,23.9408729 C63.6347866,24.9561408 64.4091517,25.6898807 66.2827261,25.3722212 C68.8697411,24.9561408 69.3391416,23.1106367 69.3391416,21.1987312 L69.3391416,20.2145207 Z M69.8383615,28.3340388 C69.5272274,27.9204954 69.3391416,27.219825 69.3705035,26.6141637 C67.8432812,28.0776191 66.5017453,29.0641918 63.9471204,29.0641918 C60.513248,29.0641918 58.8293018,27.0928837 58.9544067,23.7483176 C59.0484925,21.3269847 59.9830946,18.9712659 63.8519208,18.3005155 C65.4706582,18.2353389 67.2154431,17.8578395 68.2485011,17.5069356 C69.0252654,17.2179714 69.4021225,16.3922844 69.3391416,15.5619607 C69.3391416,14.4814287 68.4631502,14.0020963 66.4680698,14.0020963 C63.9731697,14.0020963 63.6603217,15.5619607 63.6012825,16.8071401 L59.4841317,16.8071401 C59.5495119,11.2986231 64.1628835,10.7882334 66.4680698,10.7882334 C68.1544153,10.7882334 69.6191709,11.0717735 70.4637147,11.4250395 C72.1476609,12.1246601 73.4856835,13.5248636 73.4856835,16.266043 L73.4856835,25.6898807 C73.4562924,26.4538905 73.8945023,27.219825 74.4516475,27.725578 L74.4516475,28.3340388 L69.8383615,28.3340388 Z" id="Fill-3" fill="#FFFFFF"></path>
                    <path d="M75.1969985,11.425057 L77.5714209,11.425057 L77.5714209,9.41787991 C77.5714209,6.84187289 78.8505757,5.12051055 81.6861725,5.12051055 L84.4021484,5.12051055 L84.4021484,8.4317447 L82.8752688,8.4317447 C82.2823916,8.4317447 81.9365536,8.81676786 81.9365536,9.60833558 L81.9365536,11.425057 L84.5280245,11.425057 L84.5280245,14.3852123 L81.9365536,14.3852123 L81.9365536,28.3340563 L77.5714209,28.3340563 L77.5714209,14.3852123 L75.1969985,14.3852123 L75.1969985,11.425057 Z" id="Fill-5" fill="#FFFFFF"></path>
                    <path d="M86.4212386,11.0717823 L90.7899702,11.0717823 L90.7899702,14.4194978 L90.8504662,14.4194978 C91.1302384,13.3998557 91.3492577,12.7964691 92.8768228,11.7096382 C93.6264239,11.1351217 94.6248638,10.5627923 95.9962192,10.7882422 L95.9962192,15.3415937 C94.1278718,15.1202557 91.3178958,14.8654983 90.7899702,18.6215956 L90.7899702,28.3340475 L86.4212386,28.3340475 L86.4212386,11.0717823 Z" id="Fill-7" fill="#FFFFFF"></path>
                    <g id="Group-11" transform="translate(96.656387, 10.741980)">
                        <mask id="mask-2" fill="white">
                            <use xlink:href="#path-1"></use>
                        </mask>
                        <g id="Clip-10"></g>
                        <path d="M10.4702089,9.47254077 C9.22233039,10.2352383 7.53838418,10.174261 6.42143736,10.3934119 C5.07998724,10.6506189 4.14658473,11.7953651 4.51615831,13.1988931 C4.76705361,14.2141609 5.54955905,14.9479008 7.41482167,14.6302414 C10.004236,14.2141609 10.4702089,12.3686568 10.4702089,10.4567513 L10.4702089,9.47254077 Z M10.9743131,17.5920589 C10.6600942,17.1785155 10.4702089,16.4778451 10.5025991,15.8721838 C8.97374867,17.3356393 7.63589745,18.3222119 5.07998724,18.3222119 C1.64714309,18.3222119 -0.0404877155,16.3509038 0.0894157272,13.0063377 C0.182558895,10.5850049 1.11399057,8.22928604 4.98581581,7.55853563 C6.60678113,7.49335902 8.35387961,7.1158596 9.38059666,6.76495574 C10.1664439,6.47599153 10.5383311,5.65030452 10.4702089,4.81998077 C10.4702089,3.73944884 9.59961592,3.26011645 7.60444985,3.26011645 C5.10723611,3.26011645 4.79850121,4.81998077 4.73337812,6.06516019 L0.620340352,6.06516019 C0.679550958,0.556643229 5.29257987,0.0462535212 7.60444985,0.0462535212 C9.28848175,0.0462535212 10.7532373,0.329793638 11.5970099,0.683059603 C13.2765003,1.38268019 14.6194928,2.7828837 14.6194928,5.52406311 L14.6194928,14.9479008 C14.588388,15.7119106 15.0250555,16.4778451 15.5881132,16.9835981 L15.5881132,17.5920589 L10.9743131,17.5920589 Z" id="Fill-9" fill="#FFFFFF" mask="url(#mask-2)"></path>
                    </g>
                    <g id="Group-14" transform="translate(0.000000, 0.068764)">
                        <mask id="mask-4" fill="white">
                            <use xlink:href="#path-3"></use>
                        </mask>
                        <g id="Clip-13"></g>
                        <path d="M16.2214439,18.7201391 C16.1509225,17.1367412 15.5651573,16.1772016 14.9862473,15.5991857 L14.9932737,15.5991857 C15.7612121,15.5991857 16.8298307,16.2810467 16.8298307,17.3719894 C16.8298307,17.9742388 16.6281205,18.4131529 16.2214439,18.7201391 L16.2214439,18.7201391 Z M13.6241463,21.7528198 L13.6241463,20.2328488 C14.1788922,20.2203384 14.6815397,20.1684596 15.1307177,20.0789621 C14.9139263,21.1132142 14.3488121,21.6036573 13.6241463,21.7528198 L13.6241463,21.7528198 Z M11.5279537,19.9815033 C11.8111535,20.0817616 12.1629896,20.1628605 12.6223645,20.2046785 L12.6223645,21.721675 C12.0690752,21.5224708 11.5912773,20.9563529 11.5279537,19.9815033 L11.5279537,19.9815033 Z M11.5204131,15.5991857 L12.6223645,15.5991857 L12.6223645,19.2676226 C12.2112321,19.2123319 11.8457715,19.1112863 11.5204131,18.9769087 L11.5204131,15.5991857 Z M9.78402568,13.1445209 C9.78402568,12.5945878 10.0319219,12.1184924 10.5186314,11.7748498 L10.5186314,14.4636255 C10.05223,14.191196 9.78402568,13.6907796 9.78402568,13.1445209 L9.78402568,13.1445209 Z M12.6223645,8.90567925 L12.6223645,10.283574 C12.253048,10.2941597 11.8970988,10.3341405 11.5606866,10.4020292 C11.6817642,9.71649375 12.0713888,9.14748884 12.6223645,8.90567925 L12.6223645,8.90567925 Z M14.7692845,10.618468 C14.4615779,10.5090238 14.0879769,10.3978299 13.6241463,10.334228 L13.6241463,8.84522685 C14.160812,9.023872 14.6145315,9.58334101 14.7692845,10.618468 L14.7692845,10.618468 Z M13.6241463,14.6336095 L13.6241463,11.2579862 C14.0426478,11.3170388 14.4455542,11.420709 14.8244678,11.5612105 C14.7854796,13.0204666 14.0555868,14.373603 13.6241463,14.6336095 L13.6241463,14.6336095 Z M11.5204131,11.342497 C11.8436293,11.2635852 12.2110607,11.2158182 12.6223645,11.2041826 L12.6223645,14.6786645 L11.5204131,14.6786645 L11.5204131,11.342497 Z M15.2261745,19.1461929 C14.7848798,19.2488133 14.2512988,19.3013045 13.6241463,19.3125901 L13.6241463,15.6083716 C14.0821501,15.7152788 15.2270313,16.8399908 15.2270313,19.0425228 C15.2270313,19.0774294 15.2266886,19.1119862 15.2261745,19.1461929 L15.2261745,19.1461929 Z M14.8262672,14.6786645 L14.7759682,14.6786645 C15.2776731,14.047195 15.6768948,13.0471497 15.7933452,12.0304821 C16.1456098,12.246221 16.4614568,12.4956418 16.7296611,12.7694711 C16.8631635,12.9058608 16.9300004,12.9740119 17.03017,12.9740119 C17.2305092,12.9740119 17.3306788,12.8035904 17.2305092,12.6330814 C16.9634188,12.1898804 16.8631635,11.8148306 16.8631635,11.3375978 C16.8631635,11.0306991 16.9634188,10.7580072 17.03017,10.5874982 C17.0969211,10.4170767 17.03017,10.2465677 16.8298307,10.2465677 C16.6628243,10.2465677 16.6294915,10.3829574 16.5626547,10.4852278 C16.434465,10.714352 16.1827985,10.9114566 15.8083407,10.9269415 C15.6641273,9.08458685 14.7414358,8.18235013 13.7897817,7.93345422 C14.1314209,7.10304299 14.9778498,6.59335317 16.0951394,6.36002966 C16.2621458,6.32591036 16.3957339,6.25775925 16.3957339,6.12136954 C16.3957339,5.95094802 16.2621458,5.88270943 16.0951394,5.88270943 C15.7278794,5.88270943 15.1935272,6.08725025 14.7594304,6.22363995 C14.0916615,6.42818077 13.5239766,6.56457048 13.0230429,6.56457048 C11.95451,6.56457048 11.0194794,6.08725025 10.7189706,6.08725025 C10.5854682,6.08725025 10.4852129,6.18952066 10.4852129,6.32591036 C10.4852129,6.42818077 10.5520498,6.53045118 10.752389,6.59868978 C11.640034,6.89264066 12.2174016,7.36252463 12.4722386,7.9958313 C11.9448272,8.19354826 11.5074742,8.59563106 11.2084221,9.12106826 C10.8530727,8.38951551 10.4030379,8.06468229 9.75060725,8.06468229 C9.11617117,8.06468229 8.61523745,8.54191504 8.61523745,9.12150568 C8.61523745,9.53058732 8.88241353,9.83748604 9.18292235,9.83748604 C9.31651039,9.83748604 9.38326156,9.76933492 9.38326156,9.66706451 C9.38326156,9.53058732 9.31651039,9.49655551 9.31651039,9.29201469 C9.31651039,9.08747387 9.48343117,8.91696487 9.75060725,8.91696487 C10.1512857,8.91696487 10.5186314,9.32613399 10.5186314,10.4511085 L10.5186314,10.7313242 C9.46817866,11.2062823 8.78224392,12.0432549 8.78224392,13.1785527 C8.78224392,14.3448203 9.53552965,15.2169621 10.5186314,15.5004147 L10.5186314,18.3766715 C9.76954436,17.7611244 9.35001451,16.9654449 9.08275274,16.3833171 C9.01600157,16.2469274 8.9491647,16.0764184 8.78224392,16.0764184 C8.58190471,16.0764184 8.51506784,16.2810467 8.61523745,16.5197069 C8.71540706,16.7582795 8.78224392,17.1333293 8.78224392,17.4742598 C8.78224392,17.883429 8.64865588,18.2583913 8.3814798,18.5311707 C8.24797745,18.6674729 8.14772216,18.7697433 8.14772216,18.8721012 C8.14772216,19.0084035 8.24797745,19.0766421 8.34814706,19.0766421 C8.54848627,19.0766421 8.78224392,18.8379819 9.21634078,18.8379819 C9.48343117,18.8379819 9.81735842,18.9743716 10.3517106,19.3153022 C10.4077507,19.348984 10.462934,19.385028 10.5186314,19.4226467 L10.5186314,19.8266542 L10.5186314,20.3039745 C10.5186314,20.7812947 10.3182921,21.0881059 9.91761372,21.0881059 C9.65043764,21.0881059 9.48343117,20.8835651 9.48343117,20.6107857 C9.48343117,20.4062449 9.61701921,20.3380938 9.61701921,20.2358233 C9.61701921,20.1334655 9.55026803,20.0653143 9.41668,20.0653143 C9.21634078,20.0653143 8.88241353,20.3721256 8.88241353,20.8835651 C8.88241353,21.3608853 9.21634078,21.940476 9.91761372,21.940476 C10.3146932,21.940476 10.6876944,21.8172966 11.0367027,21.4667426 C11.3602617,22.0004035 11.9278609,22.4766739 12.5698376,22.652432 C12.3940052,23.552919 11.7853613,24.2928704 10.9193955,24.2928704 C10.4852129,24.2928704 10.251541,24.0542102 10.251541,23.7473115 C10.251541,23.5086514 10.4184618,23.3723492 10.5520498,23.3041106 C10.7189706,23.2359595 10.8525586,23.2018402 10.8525586,22.9972994 C10.8525586,22.895029 10.7857218,22.7586393 10.4517945,22.7586393 C9.85077686,22.7586393 9.34992882,23.3041106 9.34992882,23.9519398 C9.34992882,24.6678327 9.85077686,25.3496938 10.885977,25.3496938 C11.7682236,25.3496938 12.5364191,24.9079801 13.0218433,24.3510481 C13.5930414,24.8222444 14.4631203,25.213304 14.8931041,25.213304 C15.0266064,25.213304 15.1601945,25.1451529 15.1601945,25.0087632 C15.1601945,24.8723735 15.0266064,24.7701031 14.8931041,24.701952 C14.1249943,24.2928704 13.6241463,23.7132797 13.6241463,22.6904881 L13.6241463,22.6736035 C14.8164988,22.4466664 15.9316461,21.4597438 16.1781713,19.7615651 C17.2633278,19.2908063 17.8316125,18.4795543 17.8316125,17.3719894 C17.8316125,15.7696072 16.3623155,14.6786645 14.8262672,14.6786645 L14.8262672,14.6786645 Z M20.5029448,24.2928704 C19.3342423,24.2928704 18.5662182,23.6110093 18.5662182,22.5882177 C18.5662182,21.7358477 19.1339031,21.0539866 19.8017576,21.0539866 C20.068848,21.0539866 20.3026056,21.156257 20.3026056,21.4290364 C20.3026056,21.5995455 20.2358545,21.7358477 20.4027752,21.7358477 C20.5029448,21.7358477 20.6032001,21.6335773 20.6032001,21.3608853 C20.6032001,21.0199548 20.3026056,20.7471754 19.8685088,20.7471754 L19.7683392,20.7471754 C19.8350903,20.6107857 19.8350903,20.474396 19.8350903,20.4403642 C19.8350903,20.1334655 19.6014184,19.9630439 19.3676607,19.9630439 C19.1339031,19.9630439 18.9001454,20.0994336 18.9001454,20.2698552 C18.9001454,20.3380938 18.9335639,20.3721256 19.000315,20.3721256 C19.1004847,20.3721256 19.1339031,20.2698552 19.3009096,20.2698552 C19.4344119,20.2698552 19.5345815,20.3380938 19.5345815,20.5085153 C19.5345815,20.7471754 19.3342423,20.8494458 19.1672358,20.9517162 C18.6330551,21.2586149 18.2657094,21.8722374 18.2657094,22.5882177 C18.2657094,23.5427707 18.7999758,24.1564807 19.5679999,24.4291726 L19.0670662,25.213304 C18.3992974,25.213304 18.0653702,25.7247436 17.4642668,26.8156863 C17.3975156,26.5429069 17.1970907,26.338366 16.8631635,26.338366 C16.4959035,26.338366 16.2621458,26.6111455 16.2621458,26.9861078 C16.2621458,27.0884657 16.328897,27.1566168 16.3957339,27.1566168 C16.4959035,27.1566168 16.5626547,27.0884657 16.5626547,26.9861078 C16.5626547,26.8156863 16.6628243,26.6451773 16.8631635,26.6451773 C17.0969211,26.6451773 17.1970907,26.8156863 17.1970907,27.0202271 C17.1970907,27.2588872 17.163758,27.3952769 16.9967515,27.6679688 C16.2955643,28.8271501 15.3271153,29.4067408 14.49234,29.4067408 C13.7577343,29.4067408 13.3236374,28.9635398 13.3236374,28.5203389 C13.3236374,28.1112573 13.5573951,27.7703267 13.9580735,27.7703267 C14.2252496,27.7703267 14.3921704,27.9407483 14.3921704,28.1794084 C14.3921704,28.3839492 14.2252496,28.3839492 14.2252496,28.4862196 C14.2252496,28.5544582 14.2920008,28.58849 14.3587519,28.58849 C14.5591768,28.58849 14.6926792,28.3498299 14.6926792,28.1112573 C14.6926792,27.7362074 14.3921704,27.463428 13.9580735,27.463428 C13.5573951,27.463428 13.2234678,27.7362074 13.1232125,28.0088994 C13.0230429,27.7362074 12.6891157,27.463428 12.2884372,27.463428 C11.8543404,27.463428 11.5538316,27.7362074 11.5538316,28.1112573 C11.5538316,28.3498299 11.6873339,28.58849 11.8877588,28.58849 C11.95451,28.58849 12.0212612,28.5544582 12.0212612,28.4862196 C12.0212612,28.3839492 11.8543404,28.3839492 11.8543404,28.1794084 C11.8543404,27.9407483 12.0212612,27.7703267 12.2884372,27.7703267 C12.6891157,27.7703267 12.9228733,28.1112573 12.9228733,28.5203389 C12.9228733,28.9635398 12.4887765,29.4067408 11.7541708,29.4067408 C10.9193955,29.4067408 9.95094646,28.8271501 9.24975921,27.6679688 C9.08275274,27.3952769 9.04933431,27.2588872 9.04933431,27.0202271 C9.04933431,26.8156863 9.14950392,26.6451773 9.38326156,26.6451773 C9.58368647,26.6451773 9.68385607,26.8156863 9.68385607,26.9861078 C9.68385607,27.0884657 9.75060725,27.1566168 9.85077686,27.1566168 C9.91761372,27.1566168 9.9843649,27.0884657 9.9843649,26.9861078 C9.9843649,26.6111455 9.75060725,26.338366 9.38326156,26.338366 C9.04933431,26.338366 8.8489951,26.5429069 8.78224392,26.8156863 C8.18114059,25.7247436 7.84721334,25.213304 7.17935883,25.213304 L6.67851079,24.4291726 C7.44653491,24.1564807 7.98080138,23.5427707 7.98080138,22.5882177 C7.98080138,21.8722374 7.61345569,21.2586149 7.07918922,20.9517162 C6.91226844,20.8494458 6.71184354,20.7471754 6.71184354,20.5085153 C6.71184354,20.3380938 6.81201314,20.2698552 6.94568687,20.2698552 C7.11260765,20.2698552 7.1459404,20.3721256 7.24619569,20.3721256 C7.31294687,20.3721256 7.3463653,20.3380938 7.3463653,20.2698552 C7.3463653,20.0994336 7.11260765,19.9630439 6.87885001,19.9630439 C6.64509236,19.9630439 6.41133472,20.1334655 6.41133472,20.4403642 C6.41133472,20.474396 6.41133472,20.6107857 6.47808589,20.7471754 L6.37800197,20.7471754 C5.94390511,20.7471754 5.6433106,21.0199548 5.6433106,21.3608853 C5.6433106,21.6335773 5.74348021,21.7358477 5.84364982,21.7358477 C6.01065629,21.7358477 5.94390511,21.5995455 5.94390511,21.4290364 C5.94390511,21.156257 6.17757707,21.0539866 6.44475315,21.0539866 C7.11260765,21.0539866 7.68029255,21.7358477 7.68029255,22.5882177 C7.68029255,23.6110093 6.91226844,24.2928704 5.74348021,24.2928704 C4.37443845,24.2928704 3.33923826,23.2700788 3.33923826,21.8381181 C3.33923826,20.4403642 4.1406808,19.4857237 5.04229296,18.6334411 L5.81031707,17.883429 C6.7786804,16.9629078 7.17935883,16.0082673 7.17935883,14.8150542 C7.17935883,13.5194832 6.41133472,12.08761 4.80853531,11.3716297 C5.14246257,11.2693593 5.34280178,10.9284287 5.34280178,10.5193471 C5.34280178,10.2465677 5.24263217,10.0761462 5.24263217,9.87151785 C5.24263217,9.46243621 5.47638982,9.22377609 5.81031707,9.22377609 C6.11082589,9.22377609 6.31116511,9.46243621 6.31116511,9.70109633 C6.31116511,9.90563715 6.17757707,10.0761462 5.94390511,10.0761462 C5.84364982,10.0761462 5.77689864,10.0761462 5.77689864,10.1784166 C5.77689864,10.280687 5.87706825,10.3148063 6.01065629,10.3148063 C6.41133472,10.3148063 6.61175962,9.97387574 6.61175962,9.80336674 C6.67851079,9.83748604 6.74526197,9.87151785 6.84543158,9.87151785 C7.07918922,9.87151785 7.24619569,9.70109633 7.24619569,9.46243621 C7.24619569,9.3942851 7.21277726,9.29201469 7.11260765,9.29201469 C7.04577079,9.29201469 7.01243805,9.3601658 7.01243805,9.4284044 C7.01243805,9.53058732 6.94568687,9.59882592 6.84543158,9.59882592 C6.71184354,9.59882592 6.61175962,9.49655551 6.54492275,9.3601658 C6.41133472,9.12150568 6.14415864,8.91696487 5.81031707,8.91696487 C5.37622021,8.91696487 5.04229296,9.22377609 4.97545609,9.63294522 C4.77511688,9.4284044 4.54135923,9.22377609 4.20743198,9.01923528 C4.47460806,8.84881375 4.7083657,8.71242405 4.97545609,8.50788323 C5.37622021,8.20098451 5.74348021,7.86005399 6.14415864,7.41685305 L7.98080138,5.37135738 C9.58368647,3.56443434 10.618801,3.12114592 11.6205827,3.12114592 C12.4887765,3.12114592 12.9228733,3.56443434 12.9228733,4.07578639 C12.9228733,4.45066124 12.7652069,4.72886475 12.5149114,4.86630428 C12.3727545,4.71924136 12.2683005,4.51837492 12.2216861,4.2803272 C12.1882676,4.10990568 12.1548492,4.10990568 12.1214308,4.10990568 C12.0546796,4.10990568 12.0546796,4.1780568 12.0546796,4.24629539 C12.0546796,4.53788416 12.1228018,4.77295738 12.2343679,4.95510194 C12.1976933,4.95965118 12.1600762,4.96218826 12.1214308,4.96218826 C11.7875035,4.96218826 11.5871643,4.79176674 11.5871643,4.58722592 C11.5871643,4.55310662 11.5871643,4.48486802 11.6540012,4.41671691 C11.7207523,4.3485658 11.6873339,4.3144465 11.6540012,4.3144465 C11.5204131,4.3144465 11.3868251,4.48486802 11.3868251,4.68949633 C11.3868251,4.92815644 11.5871643,5.26908697 12.1548492,5.26908697 C12.2389094,5.26908697 12.3505612,5.2581513 12.4705248,5.22131995 C12.6588677,5.36855785 12.8909973,5.43950849 13.1232125,5.43950849 C13.3554278,5.43950849 13.587643,5.36855785 13.7759002,5.22131995 C13.8958638,5.2581513 14.0075156,5.26908697 14.0916615,5.26908697 C14.6593464,5.26908697 14.8596,4.92815644 14.8596,4.68949633 C14.8596,4.48486802 14.7260976,4.3144465 14.5925096,4.3144465 C14.5591768,4.3144465 14.5256727,4.3485658 14.5925096,4.41671691 C14.6593464,4.48486802 14.6593464,4.55310662 14.6593464,4.58722592 C14.6593464,4.79176674 14.4589215,4.96218826 14.1249943,4.96218826 C14.0863489,4.96218826 14.0488174,4.95965118 14.0121428,4.95510194 C14.123709,4.77295738 14.1917455,4.53788416 14.1917455,4.24629539 C14.1917455,4.1780568 14.1917455,4.10990568 14.1249943,4.10990568 C14.0916615,4.10990568 14.0582431,4.10990568 14.0248247,4.2803272 C13.9782103,4.51837492 13.8737562,4.71924136 13.7315994,4.86630428 C13.4812182,4.72886475 13.3236374,4.45066124 13.3236374,4.07578639 C13.3236374,3.56443434 13.7577343,3.12114592 14.625928,3.12114592 C15.6277098,3.12114592 16.6628243,3.56443434 18.2657094,5.37135738 L20.1022664,7.41685305 C20.4696121,7.86005399 20.8702905,8.20098451 21.2710546,8.50788323 C21.538145,8.71242405 21.7719027,8.84881375 22.0390788,9.01923528 C21.7051515,9.22377609 21.4713939,9.4284044 21.2710546,9.63294522 C21.2042178,9.22377609 20.8702905,8.91696487 20.4361937,8.91696487 C20.1022664,8.91696487 19.8350903,9.12150568 19.701588,9.3601658 C19.6347511,9.49655551 19.5345815,9.59882592 19.4009935,9.59882592 C19.3009096,9.59882592 19.2340727,9.53058732 19.2340727,9.4284044 C19.2340727,9.3601658 19.2006543,9.29201469 19.1339031,9.29201469 C19.0337335,9.29201469 19.000315,9.3942851 19.000315,9.46243621 C19.000315,9.70109633 19.1672358,9.87151785 19.4009935,9.87151785 C19.5011631,9.87151785 19.5679999,9.83748604 19.6347511,9.80336674 C19.6347511,9.97387574 19.8350903,10.3148063 20.2358545,10.3148063 C20.3694425,10.3148063 20.4696121,10.280687 20.4696121,10.1784166 C20.4696121,10.0761462 20.4027752,10.0761462 20.3026056,10.0761462 C20.068848,10.0761462 19.9353456,9.93975644 19.9353456,9.70109633 C19.9353456,9.46243621 20.1356848,9.22377609 20.4361937,9.22377609 C20.7701209,9.22377609 21.0038786,9.46243621 21.0038786,9.87151785 C21.0038786,10.0761462 20.903709,10.2465677 20.903709,10.5193471 C20.903709,10.9284287 21.1040482,11.2693593 21.4379754,11.3716297 C19.8350903,12.08761 19.0670662,13.5194832 19.0670662,14.8150542 C19.0670662,16.0082673 19.4678303,16.9629078 20.4361937,17.883429 L21.2042178,18.6334411 C22.1058299,19.4857237 22.9072725,20.4403642 22.9072725,21.8381181 C22.9072725,23.2700788 21.8720723,24.2928704 20.5029448,24.2928704 L20.5029448,24.2928704 Z M13.1232125,30.6340732 C12.8561221,30.0886018 12.5556133,29.7476713 12.4220253,29.5772498 C12.7559525,29.4408601 12.9897102,29.2022 13.1232125,28.9294205 C13.2568006,29.2022 13.4905582,29.4408601 13.8244855,29.5772498 C13.6908974,29.7476713 13.3903886,30.0886018 13.1232125,30.6340732 L13.1232125,30.6340732 Z M13.4609101,5.05920954 C13.3561133,5.10688908 13.2421479,5.13260978 13.1232125,5.13260978 C13.0042772,5.13260978 12.8903975,5.10688908 12.7856007,5.05920954 C12.9160182,4.95842639 13.0366674,4.81101352 13.1232125,4.59842405 C13.2098434,4.81101352 13.3304925,4.95842639 13.4609101,5.05920954 L13.4609101,5.05920954 Z M23.441539,20.3721256 C23.2411997,20.3721256 23.0741933,20.474396 23.0074421,20.6107857 C22.740266,19.9971632 22.4730899,19.4175726 21.3043874,18.3265424 C21.3712243,18.3606617 21.6049819,18.394781 21.7719027,18.394781 C22.1392484,18.394781 22.5399268,18.2925106 22.7736844,18.0538505 C22.8404356,18.2925106 23.0407748,18.4288128 23.2746182,18.4288128 C23.6418782,18.4288128 23.7754662,18.1902402 23.7754662,17.9174608 C23.7754662,17.8151904 23.7420478,17.71292 23.6418782,17.71292 C23.441539,17.71292 23.6084597,18.1220016 23.2746182,18.1220016 C23.1409444,18.1220016 23.0407748,18.0197312 23.0407748,17.8493097 C23.0407748,17.6788007 23.1409444,17.4742598 23.1409444,17.2355997 C23.1409444,16.6901284 22.8070172,16.3150785 22.4063388,16.2128081 C22.1725811,16.144657 22.0390788,15.974148 22.0390788,15.7696072 C22.0390788,15.4969153 22.239418,15.462796 22.373006,15.462796 C22.5065084,15.462796 22.6067637,15.4969153 22.6067637,15.3945574 C22.6067637,15.292287 22.5065084,15.2241359 22.3061692,15.2241359 C22.0724115,15.2241359 21.7384843,15.3945574 21.7384843,15.7696072 C21.7384843,15.9059969 21.7719027,16.0423866 21.9054907,16.1787763 C21.6049819,16.2469274 21.3378058,16.4855876 21.3378058,16.8606374 C21.3378058,17.09921 21.404557,17.3378701 21.5715635,17.3378701 C21.7719027,17.3378701 21.6049819,17.1674486 21.6049819,16.8946692 C21.6049819,16.587858 21.8720723,16.4514683 22.1392484,16.4514683 C22.5065084,16.4514683 22.8404356,16.7923988 22.8404356,17.2355997 C22.8404356,17.7469518 22.4397572,18.0878823 21.8053211,18.0878823 C21.4379754,18.0878823 20.903709,18.0197312 20.4696121,17.5083791 C19.7683392,16.7242477 19.3676607,16.0423866 19.3676607,14.8150542 C19.3676607,13.2467913 20.4696121,11.8830692 22.0724115,11.4398683 C22.4063388,11.3375978 22.6735148,11.0306991 22.6735148,10.6216175 C22.6735148,10.280687 22.4730899,10.007995 22.1392484,10.007995 C22.0056603,10.007995 21.9054907,10.0420269 21.9054907,10.1442973 C21.9054907,10.2465677 22.0056603,10.2465677 22.0724115,10.2465677 C22.2059995,10.2465677 22.373006,10.3829574 22.373006,10.6216175 C22.373006,10.962548 22.1058299,11.1670888 21.8053211,11.1670888 C21.4379754,11.1670888 21.2042178,10.8943094 21.2042178,10.5193471 C21.2042178,9.80336674 22.0390788,9.32613399 22.6735148,9.01923528 C22.1058299,8.74654335 21.9054907,8.64427294 21.4713939,8.30334241 C21.3712243,8.20098451 21.3378058,8.09871411 21.3378058,7.96241188 C21.3378058,7.79190288 21.4379754,7.65551317 21.5715635,7.65551317 C21.6717331,7.65551317 21.7384843,7.72375177 21.7384843,7.82602218 C21.7384843,7.92829259 21.6717331,7.92829259 21.6717331,7.9964437 C21.6717331,8.06468229 21.7051515,8.09871411 21.7719027,8.09871411 C21.8386539,8.09871411 22.0056603,8.03056299 22.0056603,7.75778358 C22.0056603,7.55324276 21.8720723,7.34870194 21.5715635,7.34870194 C21.2710546,7.34870194 21.037297,7.58736206 21.037297,7.92829259 C20.8035394,7.72375177 20.5363633,7.48509165 20.3026056,7.21231223 L19.2340727,6.01909913 C18.9335639,5.67816861 19.1004847,5.03042685 19.5345815,5.03042685 C19.7683392,5.03042685 19.8685088,5.20084837 19.8685088,5.33723808 C19.8685088,5.64404931 19.5679999,5.5076596 19.5679999,5.67816861 C19.5679999,5.74631972 19.6014184,5.81447083 19.701588,5.81447083 C19.9353456,5.81447083 20.1690176,5.64404931 20.1690176,5.30311878 C20.1690176,4.99630756 19.9019272,4.72352814 19.5345815,4.72352814 C19.1004847,4.72352814 18.7999758,5.06445867 18.7999758,5.5417789 L18.4660486,5.16672908 C16.9967515,3.53031504 15.7946306,2.81433469 14.625928,2.81433469 C14.1917455,2.81433469 13.791067,2.9507244 13.5573951,3.12114592 C13.3569702,2.88257329 13.2568006,2.71206428 13.1232125,2.50752346 C12.9897102,2.71206428 12.8895406,2.88257329 12.6891157,3.12114592 C12.455358,2.9507244 12.0546796,2.81433469 11.6205827,2.81433469 C10.4517945,2.81433469 9.24975921,3.53031504 7.78046216,5.16672908 L7.44653491,5.5417789 C7.44653491,5.06445867 7.1459404,4.72352814 6.71184354,4.72352814 C6.34458354,4.72352814 6.07740746,4.99630756 6.07740746,5.30311878 C6.07740746,5.64404931 6.31116511,5.81447083 6.54492275,5.81447083 C6.64509236,5.81447083 6.67851079,5.74631972 6.67851079,5.67816861 C6.67851079,5.5076596 6.37800197,5.64404931 6.37800197,5.33723808 C6.37800197,5.20084837 6.47808589,5.03042685 6.71184354,5.03042685 C7.1459404,5.03042685 7.31294687,5.67816861 7.01243805,6.01909913 L5.94390511,7.21231223 C5.71014746,7.48509165 5.44297139,7.72375177 5.20921374,7.92829259 C5.20921374,7.58736206 4.97545609,7.34870194 4.67494727,7.34870194 C4.37443845,7.34870194 4.24085041,7.55324276 4.24085041,7.75778358 C4.24085041,8.03056299 4.40777119,8.09871411 4.47460806,8.09871411 C4.54135923,8.09871411 4.57477767,8.06468229 4.57477767,7.9964437 C4.57477767,7.92829259 4.5079408,7.92829259 4.5079408,7.82602218 C4.5079408,7.72375177 4.57477767,7.65551317 4.67494727,7.65551317 C4.80853531,7.65551317 4.90870492,7.79190288 4.90870492,7.96241188 C4.90870492,8.09871411 4.87528649,8.20098451 4.77511688,8.30334241 C4.37443845,8.71242405 4.1406808,8.74654335 3.57299591,9.01923528 C4.20743198,9.32613399 5.04229296,9.80336674 5.04229296,10.5193471 C5.04229296,10.8943094 4.80853531,11.1670888 4.44118963,11.1670888 C4.1406808,11.1670888 3.87350473,10.962548 3.87350473,10.6216175 C3.87350473,10.3829574 4.0405112,10.2465677 4.17401355,10.2465677 C4.24085041,10.2465677 4.34102002,10.2465677 4.34102002,10.1442973 C4.34102002,10.0420269 4.24085041,10.007995 4.10726237,10.007995 C3.77333512,10.007995 3.57299591,10.280687 3.57299591,10.6216175 C3.57299591,11.0306991 3.84008629,11.3375978 4.17401355,11.4398683 C5.77689864,11.917101 6.87885001,13.2467913 6.87885001,14.8150542 C6.87885001,16.0423866 6.44475315,16.6901284 5.77689864,17.5083791 C5.34280178,18.0197312 4.80853531,18.0878823 4.44118963,18.0878823 C3.80675355,18.0878823 3.40598943,17.7469518 3.40598943,17.2355997 C3.40598943,16.7923988 3.73991669,16.4514683 4.10726237,16.4514683 C4.37443845,16.4514683 4.64152884,16.587858 4.64152884,16.8946692 C4.64152884,17.1674486 4.47460806,17.3378701 4.67494727,17.3378701 C4.84186806,17.3378701 4.90870492,17.09921 4.90870492,16.8606374 C4.90870492,16.4855876 4.64152884,16.2469274 4.34102002,16.1787763 C4.47460806,16.0423866 4.5079408,15.9059969 4.5079408,15.7696072 C4.5079408,15.3945574 4.17401355,15.2241359 3.94034159,15.2241359 C3.73991669,15.2241359 3.63974708,15.292287 3.63974708,15.3945574 C3.63974708,15.4969153 3.73991669,15.462796 3.87350473,15.462796 C4.00709277,15.462796 4.20743198,15.4969153 4.20743198,15.7696072 C4.20743198,15.974148 4.07384394,16.144657 3.84008629,16.2128081 C3.43940787,16.3150785 3.10548061,16.6901284 3.10548061,17.2355997 C3.10548061,17.4742598 3.20573591,17.6788007 3.20573591,17.8493097 C3.20573591,18.0197312 3.10548061,18.1220016 2.97189257,18.1220016 C2.63805101,18.1220016 2.80497179,17.71292 2.60463258,17.71292 C2.50437728,17.71292 2.47104454,17.8151904 2.47104454,17.9174608 C2.47104454,18.1902402 2.60463258,18.4288128 2.97189257,18.4288128 C3.20573591,18.4288128 3.40598943,18.2925106 3.4728263,18.0538505 C3.70658394,18.2925106 4.10726237,18.394781 4.47460806,18.394781 C4.64152884,18.394781 4.87528649,18.3606617 4.94212335,18.3265424 C3.77333512,19.4175726 3.50615904,19.9971632 3.23906865,20.6107857 C3.17223179,20.474396 3.00531101,20.3721256 2.80497179,20.3721256 C2.47104454,20.3721256 2.30412376,20.5767539 2.30412376,20.8835651 C2.30412376,20.9517162 2.30412376,21.156257 2.47104454,21.156257 C2.60463258,21.156257 2.5378814,21.0199548 2.5378814,20.9176844 C2.5378814,20.7812947 2.63805101,20.6790243 2.80497179,20.6790243 C3.07206218,20.6790243 3.13889904,20.9176844 3.07206218,21.2926467 C3.03872944,21.4631557 3.03872944,21.6676966 3.03872944,21.8381181 C3.03872944,23.4405003 4.20743198,24.5996816 5.74348021,24.5996816 C5.97723785,24.5996816 6.17757707,24.5655623 6.41133472,24.531443 L6.87885001,25.2474233 C6.54492275,25.3496938 6.31116511,25.656505 6.31116511,25.9974355 C6.31116511,26.4407239 6.64509236,26.781567 7.07918922,26.781567 C7.3463653,26.781567 7.54670451,26.6451773 7.54670451,26.508875 C7.54670451,26.4066046 7.47986765,26.3724853 7.41311648,26.3724853 C7.31294687,26.3724853 7.31294687,26.4747557 7.07918922,26.4747557 C6.81201314,26.4747557 6.61175962,26.2702149 6.61175962,25.9974355 C6.61175962,25.7247436 6.84543158,25.5202028 7.17935883,25.5202028 C7.8137949,25.5202028 8.11438941,26.2702149 8.54848627,27.0202271 L8.98258314,27.7703267 C9.68385607,28.9976591 10.8191402,29.713552 11.7541708,29.713552 C11.8877588,29.713552 12.0212612,29.713552 12.1548492,29.6795202 C12.5556133,30.0886018 12.9562917,30.8387015 13.1232125,31.1795445 C13.290219,30.8387015 13.6908974,30.0886018 14.0916615,29.6795202 C14.2252496,29.713552 14.3587519,29.713552 14.49234,29.713552 C15.4272849,29.713552 16.5626547,28.9976591 17.2639276,27.7703267 L17.6980245,27.0202271 C18.1321213,26.2702149 18.4326302,25.5202028 19.0670662,25.5202028 C19.4009935,25.5202028 19.6347511,25.7247436 19.6347511,25.9974355 C19.6347511,26.2702149 19.4344119,26.4747557 19.1672358,26.4747557 C18.9335639,26.4747557 18.9335639,26.3724853 18.8333086,26.3724853 C18.7665574,26.3724853 18.6998062,26.4066046 18.6998062,26.508875 C18.6998062,26.6451773 18.9001454,26.781567 19.1672358,26.781567 C19.6014184,26.781567 19.9353456,26.4407239 19.9353456,25.9974355 C19.9353456,25.656505 19.701588,25.3496938 19.3676607,25.2474233 L19.8350903,24.531443 C20.068848,24.5655623 20.2692729,24.5996816 20.5029448,24.5996816 C22.0390788,24.5996816 23.2077813,23.4405003 23.2077813,21.8381181 C23.2077813,21.6676966 23.2077813,21.4631557 23.1743629,21.2926467 C23.1076117,20.9176844 23.1743629,20.6790243 23.441539,20.6790243 C23.6084597,20.6790243 23.7086293,20.7812947 23.7086293,20.9176844 C23.7086293,21.0199548 23.6418782,21.156257 23.7754662,21.156257 C23.942387,21.156257 23.942387,20.9517162 23.942387,20.8835651 C23.942387,20.5767539 23.7754662,20.3721256 23.441539,20.3721256 L23.441539,20.3721256 Z M22.5733452,26.2360956 C21.1040482,27.7703267 18.9335639,28.8612694 16.8631635,29.884061 C15.4941217,30.5659221 14.1584127,31.2477831 13.1232125,32.0659464 C12.088098,31.2477831 10.752389,30.5659221 9.38326156,29.884061 C7.31294687,28.8612694 5.14246257,27.7703267 3.67316551,26.2360956 C1.80319003,24.2928704 0.901577878,22.3154383 0.901577878,20.0653143 C0.901577878,18.1561209 1.63626925,16.5537387 3.30581983,14.4059726 C3.43940787,14.2354636 3.57299591,14.0650421 3.57299591,13.9285649 C3.57299591,13.7922626 3.43940787,13.5194832 3.37265669,13.383181 L2.20395415,10.792039 C1.93677807,10.2124484 1.66960199,9.66706451 1.66960199,9.08747387 C1.66960199,8.61015364 1.9701965,8.26922311 2.37087493,7.92829259 L4.0405112,6.39406147 C4.10726237,6.32591036 4.10726237,6.22363995 4.07384394,6.15540136 L3.53957747,5.03042685 C3.4728263,4.89403715 3.4728263,4.79176674 3.57299591,4.72352814 C5.20921374,3.59846615 6.57834119,3.25753563 8.54848627,2.71206428 C10.4184618,2.20071223 12.088098,1.75742381 13.1232125,1.07565025 C14.1584127,1.75742381 15.828049,2.20071223 17.6980245,2.71206428 C19.6681696,3.25753563 21.0038786,3.66670475 22.6735148,4.72352814 C22.7736844,4.79176674 22.7736844,4.89403715 22.7069333,5.03042685 L22.1725811,6.15540136 C22.1392484,6.22363995 22.1392484,6.32591036 22.2059995,6.39406147 L23.8756358,7.92829259 C24.2763142,8.26922311 24.5769088,8.61015364 24.5769088,9.08747387 C24.5769088,9.66706451 24.3097327,10.2124484 24.0425566,10.792039 L22.8738541,13.383181 C22.8070172,13.5194832 22.6735148,13.7922626 22.6735148,13.9285649 C22.6735148,14.0650421 22.8070172,14.2354636 22.9406909,14.4059726 C24.7438295,16.4514683 25.3449329,18.1561209 25.3449329,20.0653143 C25.3449329,22.3154383 24.4433207,24.2928704 22.5733452,26.2360956 L22.5733452,26.2360956 Z M24.1427262,14.5081555 C23.8422174,14.1331932 23.6752966,13.9626842 23.6752966,13.8263819 C23.6752966,13.6899047 23.7754662,13.4854514 23.8756358,13.2467913 L24.8774176,10.9966673 C25.1779264,10.3148063 25.4451025,9.73521563 25.4451025,9.01923528 C25.4451025,8.50788323 25.2447633,7.9964437 24.7438295,7.55324276 L23.3079509,6.29179106 C23.1743629,6.18952066 23.1743629,6.01909913 23.2411997,5.88270943 L23.7754662,4.65537703 C23.8087989,4.58722592 23.8087989,4.48486802 23.7086293,4.41671691 C22.0724115,3.29165492 20.202436,2.60979387 18.4326302,2.09835434 C16.6628243,1.62112159 14.2920008,0.939260538 13.1232125,0.0187393687 C11.95451,0.939260538 9.58368647,1.58700229 7.8137949,2.09835434 C6.04407472,2.60979387 4.17401355,3.29165492 2.5378814,4.41671691 C2.43762611,4.48486802 2.43762611,4.58722592 2.47104454,4.65537703 L3.00531101,5.88270943 C3.07206218,6.01909913 3.07206218,6.18952066 2.93855983,6.29179106 L1.50268121,7.55324276 C1.00174748,7.9964437 0.801408271,8.50788323 0.801408271,9.01923528 C0.801408271,9.73521563 1.06858435,10.3148063 1.36909317,10.9966673 L2.37087493,13.2467913 C2.47104454,13.4854514 2.57121414,13.6899047 2.57121414,13.8263819 C2.57121414,13.9626842 2.40420767,14.1331932 2.10369885,14.5081555 C0.601069056,16.417349 -3.42753147e-05,17.9856119 -3.42753147e-05,20.0653143 C-3.42753147e-05,22.9631801 1.4025116,25.1792722 3.00531101,26.8498056 C4.64152884,28.5544582 6.91226844,29.6795202 8.98258314,30.7022243 C10.3517106,31.3840853 11.7875035,32.0659464 13.1232125,33.1569766 C14.4589215,32.0659464 15.8948002,31.3840853 17.2639276,30.7022243 C19.3342423,29.6795202 21.6383146,28.5544582 23.2411997,26.8498056 C24.8439991,25.1792722 26.2464593,22.9631801 26.2464593,20.0653143 C26.2464593,17.9856119 25.6454417,16.417349 24.1427262,14.5081555 L24.1427262,14.5081555 Z" id="Fill-12" fill="#FFFFFF" mask="url(#mask-4)"></path>
                    </g>
                </g>
            </g>
        </g>
    </g>
</svg>